<svg t="1739696274881" class="icon" viewBox="0 0 1024 1024" version="1.1" xmlns="http://www.w3.org/2000/svg"
    p-id="10623" width="200" height="200">
    <path
        d="M469.989328 966.147283h-4.351753c-26.878475-3.583797-41.213661-25.598547-41.213661-67.580165v-64.764324c0-110.84171-55.036877-322.28571-174.582093-343.020534V57.910826H826.833077a45.053443 45.053443 0 0 1 45.053443 34.302053l87.803018 443.366839a39.165777 39.165777 0 0 1 0 7.679564 44.029501 44.029501 0 0 1-46.077385 41.981618H547.296941a39.933734 39.933734 0 0 0-12.287303 2.047883 34.046068 34.046068 0 0 0-23.038692 44.285487c23.038693 60.412572 34.302053 206.324291 34.302053 246.769996s-43.773516 87.803017-76.795642 87.803017m0 57.852717c70.14002 0 139.256097-72.187903 139.256097-145.655734 0-39.677748-8.959492-182.005671-26.878474-234.994664h332.781114A105.466015 105.466015 0 0 0 1023.941891 543.259282a89.850901 89.850901 0 0 0-1.791898-18.430954L934.346976 81.461489A107.513899 107.513899 0 0 0 826.833077 0.058109H249.841821a60.924543 60.924543 0 0 0-63.484397 57.852717v432.871434a59.38863 59.38863 0 0 0 51.197095 56.828775c89.33893 15.615114 122.617041 203.252465 122.873027 286.191759v64.508339c0 104.186087 73.211845 121.849085 95.482581 124.920911a117.241347 117.241347 0 0 0 13.56723 0zM185.845453 486.430507H90.874843a25.598547 25.598547 0 0 1-25.598547-25.598547V90.932952a25.598547 25.598547 0 0 1 25.598547-25.598548h94.97061V486.430507m63.996368 63.996368V0.058109H90.874843A90.874843 90.874843 0 0 0 0 90.932952v368.363095a90.874843 90.874843 0 0 0 90.874843 90.874843z"
        p-id="10624" fill="#9499a0"></path>
</svg>